<svg width="172" height="336" viewBox="0 0 172 336" fill="none" xmlns="http://www.w3.org/2000/svg">
<path fill-rule="evenodd" clip-rule="evenodd" d="M-62.2394 293.942C-97.5098 256.163 -95.4917 200.352 -83.5932 152.326C-81.6068 144.308 -80.6883 135.61 -75.3512 129.337C-70.0142 123.069 -60.0417 120.122 -53.548 125.057C-48.162 129.15 -47.0327 136.678 -44.9068 143.157C-42.0827 151.777 -36.7912 159.537 -29.8414 165.254C-25.2764 169.011 -19.2738 171.991 -13.6115 170.266C-5.84822 167.899 -2.98814 158.452 -1.33347 150.406C1.74924 135.417 4.83136 120.431 7.90977 105.443C9.56488 97.4047 11.2783 89.1978 15.3902 82.1051C19.4984 75.0106 26.5088 69.1007 34.589 68.5779C42.6691 68.056 51.1619 74.4612 51.1047 82.664C51.0822 86.0764 49.6956 89.3316 49.2126 92.7126C48.7275 96.0942 49.4964 100.11 52.4598 101.708C55.4603 103.331 59.1486 101.735 62.0458 99.8902C72.0363 93.5388 79.8671 84.2839 87.3159 75.0078C94.7677 65.7322 102.117 56.1789 111.5 48.9251C120.88 41.6756 132.751 36.8704 144.369 38.6541C155.986 40.4396 166.713 50.1324 167.217 62.0383C167.726 73.9799 158.698 84.0675 149.578 91.7098C136.052 103.05 120.908 112.405 104.781 119.382C101.873 120.644 98.7213 122.003 97.1216 124.772C94.2472 129.759 98.1831 136.15 103.086 139.028C108.64 142.292 115.252 143.043 121.346 145.109C127.441 147.172 133.626 151.372 134.734 157.791C136.276 166.695 127.6 173.846 119.664 178.051C103.769 186.473 86.4632 192.115 68.7347 194.661C62.3808 195.573 55.7718 196.153 50.1367 199.295C44.5005 202.437 40.1017 209.047 41.7751 215.311C43.4476 221.585 50.4383 224.959 56.8569 225.118C63.2735 225.282 69.5192 223.097 75.8751 222.122C87.7731 220.29 101.839 224.072 106.87 235.107C110.178 242.359 108.736 251.179 104.805 258.152C100.876 265.13 94.755 270.557 88.4422 275.425C66.3839 292.431 40.2388 304.343 12.8026 307.797C-14.6297 311.252 -38.8184 308.634 -62.2392 293.941" fill="#00CCCC"/>
</svg>
