<svg width="793" height="538" viewBox="0 0 793 538" fill="none" xmlns="http://www.w3.org/2000/svg">
<path d="M423.52 645.956C513.859 644.654 601.399 602.434 672.435 539.593C723.781 494.118 768.758 435.51 786.806 364.854C804.951 294.199 782.077 233.963 733.24 185.123C688.07 140.081 622.536 136.5 572.155 99.0557C535.479 71.8138 510.578 13.9655 467.821 2.78653C428.635 -7.52415 392.442 12.1204 360.399 39.6879C328.355 67.2554 302.586 88.8536 271.314 117.398C246.124 140.407 217.748 158.749 187.442 171.556C132.138 194.999 66.99 202.922 28.5766 253.39C-0.474727 291.703 -6.45872 347.815 6.47442 396.003C19.4076 444.192 49.231 484.784 84.1698 516.15C175.281 598.093 307.315 647.693 423.52 645.956Z" fill="#E3E6E8"/>
</svg>
